<svg width="18" height="19" viewBox="0 0 18 19" fill="none" xmlns="http://www.w3.org/2000/svg">
<path d="M11.25 5.33438H13.5C13.9925 5.33438 14.4801 5.43138 14.9351 5.61983C15.39 5.80829 15.8034 6.08451 16.1517 6.43273C16.4999 6.78095 16.7761 7.19435 16.9645 7.64932C17.153 8.10429 17.25 8.59192 17.25 9.08438C17.25 9.57684 17.153 10.0645 16.9645 10.5194C16.7761 10.9744 16.4999 11.3878 16.1517 11.736C15.8034 12.0843 15.39 12.3605 14.9351 12.5489C14.4801 12.7374 13.9925 12.8344 13.5 12.8344H11.25M6.75 12.8344H4.5C4.00754 12.8344 3.51991 12.7374 3.06494 12.5489C2.60997 12.3605 2.19657 12.0843 1.84835 11.736C1.14509 11.0328 0.75 10.0789 0.75 9.08438C0.75 8.08982 1.14509 7.13599 1.84835 6.43273C2.55161 5.72947 3.50544 5.33438 4.5 5.33438H6.75" stroke="#23262F" stroke-width="1.5" stroke-linecap="round" stroke-linejoin="round"/>
<path d="M6 9.08438H12" stroke="#23262F" stroke-width="1.5" stroke-linecap="round" stroke-linejoin="round"/>
</svg>
